<?xml version="1.0" standalone="no"?>
<!DOCTYPE svg PUBLIC "-//W3C//DTD SVG 20010904//EN" "http://www.w3.org/TR/2001/REC-SVG-20010904/DTD/svg10.dtd">
<!-- Created using Krita: https://krita.org -->
<svg xmlns="http://www.w3.org/2000/svg" 
    xmlns:xlink="http://www.w3.org/1999/xlink"
    xmlns:krita="http://krita.org/namespaces/svg/krita"
    xmlns:sodipodi="http://sodipodi.sourceforge.net/DTD/sodipodi-0.dtd"
    width="11.52pt"
    height="11.52pt"
    viewBox="0 0 11.52 11.52">
<defs/>
<path id="shape0" fill="#e0e0e0" fill-rule="evenodd" stroke-opacity="0" stroke="#000000" stroke-width="0" stroke-linecap="square" stroke-linejoin="bevel" d="M5.76 1.44L4.63899 1.58807L3.60268 2.01733L2.7053 2.7053L2.01733 3.60268L1.58807 4.63899L1.44 5.76L1.58807 6.88101L2.01733 7.91732L2.7053 8.8147L3.60268 9.50267L4.63899 9.93193L5.76 10.08L5.80368 10.0742L5.80368 8.63131L5.76 8.64L4.6579 8.4207L3.72353 7.79647L3.0993 6.8621L2.88 5.76L3.0993 4.6579L3.72353 3.72353L4.6579 3.0993L5.76 2.88L5.80368 2.88869L5.80368 1.44577L5.76 1.44" sodipodi:nodetypes="ccccccccccccccccccccccccccc"/><path id="shape1" transform="translate(-0.828536732430308, 0.107284028485576)" fill="#e0e0e0" fill-rule="evenodd" stroke="none" stroke-width="0.8568" stroke-linecap="square" stroke-linejoin="bevel" d="M10.2048 5.70779L9.90074 4.38561L9.07168 3.30591L7.84202 2.57796L6.33621 2.31102L6.28563 2.31999L6.28563 9.09558L6.33621 9.10455L7.84202 8.83761L9.07168 8.10966L9.90074 7.02996L10.2048 5.70779" sodipodi:nodetypes="cccccccccccc"/><rect id="shape2" transform="translate(0.334107960682412, 0.302288154903138)" fill="none" stroke="#e0e0e0" stroke-width="0.72" stroke-linecap="square" stroke-linejoin="bevel" width="10.8028240620647" height="10.8664636736233"/>
</svg>
